<svg xmlns="http://www.w3.org/2000/svg" xmlns:xlink="http://www.w3.org/1999/xlink" data-v-8702752c="" preserveAspectRatio="xMidYMid meet" color-interpolation-filters="sRGB" class="el-tooltip" style="margin: auto;" width="60px" height="46px">  <g><g class="iconsvg-imagesvg"><rect fill="#dc463b" fill-opacity="0" stroke-width="2" x="0" y="0" width="60" height="32.52439541790412" class="image-rect"/> <svg x="0" y="0" width="60" height="32.52439541790412" filtersec="colorsb1390767578" class="image-svg-svg primary"><svg xmlns="http://www.w3.org/2000/svg" viewBox="0 0 141.42 76.66"><g><g><path d="M0 38.06C.15 17.46 16.67.37 37.2.15q33-.34 65.91.09c19.85.25 35.18 14.15 38 33.87 2.48 17.49-9.09 35.13-27 40.72a43.4 43.4 0 0 1-10.6 1.65c-3.52.18-6.26-1.57-6.68-5.33-.46-4 1.75-6.34 5.57-7.13 1.64-.35 3.36-.29 5-.55A25.6 25.6 0 0 0 128.68 40c.85-12.06-6.92-22.67-19.3-26.34-10.77-3.19-23 2-28.54 12.24a33.61 33.61 0 0 0-2.27 5.18c-1.26 3.7-3.5 6.49-7.6 6.49s-6.42-2.43-7.74-6.28c-3-8.68-8.68-14.68-17.74-17.37-13.65-4-28.16 4.34-31.79 18.5-3.5 13.66 6.07 28.49 20 30.88 1.66.29 3.36.3 5 .52 3.85.51 6.34 2.54 6.29 6.58-.06 4.57-3.35 6.34-7.23 6.23a37.35 37.35 0 0 1-20.32-6.18C6 62.69 0 52 0 38.06z" fill="#48a1a9"/><path d="M102.76 50.55c-7.16 0-12.2-5.28-12-12.52.16-6.54 5.75-12.12 12.14-12.1a12.37 12.37 0 0 1 12.36 12.51c-.07 7.24-5.11 12.14-12.5 12.11zM38.73 50.56c-7.14 0-12.39-5.16-12.35-12.15 0-6.77 5.89-12.83 12.2-12.66 6.53.18 12.48 6.14 12.57 12.6a12.16 12.16 0 0 1-12.42 12.21z" fill="#dc463b"/></g></g></svg></svg> <!----></g> <g transform="translate(30.005023336525483,39.52444839477539)"><g data-gra="path-name" fill-rule="" class="tp-name iconsvg-namesvg" transform="translate(0,0)"><g><path d="" transform="translate(0, 0)"/></g> <!----> <!----> <!----> <!----> <!----> <!----> <!----></g> <g data-gra="path-slogan" fill-rule="" class="tp-slogan iconsvg-slogansvg" fill="url(#0f54095e-1a54-485d-8959-be373391d2ee)" transform="translate(-29.229999542236328,-3)"><!----> <!----> <g transform="scale(1, 1)"><path d="M11.69-8.50L11.69-8.50L11.69-8.26Q11.42-8.16 11.14-7.84Q10.85-7.52 10.63-6.83L10.63-6.83L8.52 0.02Q8.42 0.01 8.32 0.01Q8.21 0.01 8.10 0.01L8.10 0.01Q7.99 0.01 7.88 0.01Q7.78 0.01 7.68 0.02L7.68 0.02L5.16-7.61Q5.04-7.98 4.87-8.11Q4.69-8.24 4.50-8.26L4.50-8.26L4.50-8.50Q4.84-8.48 5.30-8.47Q5.76-8.46 6.22-8.46L6.22-8.46Q6.74-8.46 7.21-8.47Q7.67-8.48 7.94-8.50L7.94-8.50L7.94-8.26Q7.58-8.24 7.37-8.17Q7.16-8.10 7.13-7.90Q7.10-7.69 7.25-7.25L7.25-7.25L8.95-2.04L8.68-1.55L10.03-5.86Q10.32-6.77 10.31-7.28Q10.30-7.80 10.03-8.02Q9.77-8.24 9.28-8.26L9.28-8.26L9.28-8.50Q9.68-8.48 10.04-8.47Q10.40-8.46 10.76-8.46L10.76-8.46Q11.04-8.46 11.27-8.47Q11.51-8.48 11.69-8.50ZM3.12-8.50L3.12-8.50L3.12-8.26Q2.88-8.22 2.78-8.08Q2.69-7.94 2.71-7.72Q2.72-7.50 2.81-7.25L2.81-7.25L4.64-1.92L4.32-1.49L5.86-5.98L6.02-5.65L4.14 0.02Q4.04 0.01 3.94 0.01Q3.83 0.01 3.72 0.01L3.72 0.01Q3.61 0.01 3.50 0.01Q3.40 0.01 3.30 0.02L3.30 0.02L0.61-7.49Q0.46-7.93 0.25-8.09Q0.04-8.24-0.14-8.26L-0.14-8.26L-0.14-8.50Q0.22-8.48 0.71-8.47Q1.20-8.46 1.64-8.46L1.64-8.46Q2.12-8.46 2.50-8.47Q2.88-8.48 3.12-8.50ZM13.13-9.30L13.13-9.30Q13.63-9.30 13.93-9.05Q14.22-8.81 14.22-8.38L14.22-8.38Q14.22-7.94 13.93-7.70Q13.63-7.45 13.13-7.45L13.13-7.45Q12.62-7.45 12.33-7.70Q12.04-7.94 12.04-8.38L12.04-8.38Q12.04-8.81 12.33-9.05Q12.62-9.30 13.13-9.30ZM14.06-6.34L14.06-6.34L14.06-1.12Q14.06-0.61 14.24-0.43Q14.41-0.25 14.83-0.25L14.83-0.25L14.83 0Q14.62-0.01 14.16-0.03Q13.70-0.05 13.24-0.05L13.24-0.05Q12.77-0.05 12.29-0.03Q11.81-0.01 11.57 0L11.57 0L11.57-0.25Q11.99-0.25 12.16-0.43Q12.34-0.61 12.34-1.12L12.34-1.12L12.34-4.90Q12.34-5.44 12.17-5.69Q12.01-5.95 11.57-5.95L11.57-5.95L11.57-6.20Q11.95-6.17 12.31-6.17L12.31-6.17Q12.82-6.17 13.25-6.21Q13.69-6.25 14.06-6.34ZM19.81-6.37L19.81-6.37Q20.32-6.37 20.63-6.25Q20.95-6.12 21.13-5.90L21.13-5.90Q21.32-5.68 21.41-5.32Q21.50-4.96 21.50-4.34L21.50-4.34L21.50-1.12Q21.50-0.61 21.68-0.43Q21.85-0.25 22.27-0.25L22.27-0.25L22.27 0Q22.04-0.01 21.59-0.03Q21.13-0.05 20.69-0.05L20.69-0.05Q20.23-0.05 19.79-0.03Q19.36-0.01 19.13 0L19.13 0L19.13-0.25Q19.49-0.25 19.63-0.43Q19.78-0.61 19.78-1.12L19.78-1.12L19.78-4.85Q19.78-5.15 19.72-5.37Q19.66-5.59 19.50-5.72Q19.34-5.84 19.03-5.84L19.03-5.84Q18.53-5.84 18.19-5.45Q17.84-5.05 17.84-4.45L17.84-4.45L17.84-1.12Q17.84-0.61 17.99-0.43Q18.14-0.25 18.49-0.25L18.49-0.25L18.49 0Q18.28-0.01 17.86-0.03Q17.45-0.05 17.00-0.05L17.00-0.05Q16.55-0.05 16.07-0.03Q15.59-0.01 15.35 0L15.35 0L15.35-0.25Q15.77-0.25 15.94-0.43Q16.12-0.61 16.12-1.12L16.12-1.12L16.12-4.90Q16.12-5.44 15.95-5.69Q15.79-5.95 15.35-5.95L15.35-5.95L15.35-6.20Q15.73-6.17 16.09-6.17L16.09-6.17Q16.60-6.17 17.03-6.21Q17.47-6.25 17.84-6.34L17.84-6.34L17.84-5.26Q18.14-5.87 18.66-6.12Q19.18-6.37 19.81-6.37ZM28.62-9.40L28.62-9.40L28.62-1.32Q28.62-0.78 28.79-0.52Q28.96-0.26 29.39-0.26L29.39-0.26L29.39-0.01Q29.02-0.05 28.64-0.05L28.64-0.05Q28.14-0.05 27.70-0.01Q27.26 0.02 26.89 0.12L26.89 0.12L26.89-7.96Q26.89-8.50 26.73-8.75Q26.57-9.01 26.12-9.01L26.12-9.01L26.12-9.26Q26.51-9.23 26.87-9.23L26.87-9.23Q27.36-9.23 27.80-9.27Q28.25-9.31 28.62-9.40ZM25.56-6.37L25.56-6.37Q26.09-6.37 26.49-6.20Q26.89-6.02 27.12-5.62L27.12-5.62L26.98-5.48Q26.82-5.77 26.56-5.90Q26.30-6.02 26.02-6.02L26.02-6.02Q25.40-6.02 25.04-5.31Q24.68-4.60 24.70-3.11L24.70-3.11Q24.70-2.09 24.83-1.48Q24.97-0.88 25.23-0.61Q25.49-0.35 25.82-0.35L25.82-0.35Q26.23-0.35 26.56-0.67Q26.88-1.00 26.90-1.55L26.90-1.55L26.96-1.13Q26.78-0.49 26.38-0.16Q25.98 0.17 25.33 0.17L25.33 0.17Q24.62 0.17 24.07-0.18Q23.51-0.53 23.20-1.25Q22.88-1.98 22.88-3.13L22.88-3.13Q22.88-4.22 23.23-4.94Q23.58-5.65 24.19-6.01Q24.79-6.37 25.56-6.37ZM40.08-8.50L40.08-8.50L40.08-8.26Q39.82-8.16 39.52-7.84Q39.23-7.51 38.98-6.83L38.98-6.83L36.44 0.02Q36.35 0.01 36.24 0.01Q36.13 0.01 36.02 0.01L36.02 0.01Q35.93 0.01 35.82 0.01Q35.71 0.01 35.62 0.02L35.62 0.02L32.56-7.49Q32.39-7.92 32.18-8.08Q31.98-8.24 31.80-8.26L31.80-8.26L31.80-8.50Q32.16-8.48 32.65-8.47Q33.13-8.46 33.62-8.46L33.62-8.46Q34.18-8.46 34.66-8.47Q35.15-8.48 35.45-8.50L35.45-8.50L35.45-8.26Q34.86-8.23 34.68-8.06Q34.50-7.88 34.75-7.25L34.75-7.25L36.94-1.69L36.68-1.39L38.34-5.86Q38.66-6.76 38.68-7.27Q38.69-7.79 38.42-8.02Q38.16-8.24 37.67-8.26L37.67-8.26L37.67-8.50Q38.08-8.48 38.44-8.47Q38.80-8.46 39.17-8.46L39.17-8.46Q39.43-8.46 39.67-8.47Q39.90-8.48 40.08-8.50ZM40.97 0.08L40.97 0.08Q40.16 0.08 39.80-0.34Q39.44-0.76 39.44-1.36L39.44-1.36Q39.44-1.87 39.68-2.20Q39.91-2.52 40.28-2.73Q40.66-2.94 41.07-3.08Q41.48-3.22 41.86-3.35Q42.24-3.49 42.47-3.67Q42.71-3.85 42.71-4.13L42.71-4.13L42.71-5.06Q42.71-5.38 42.61-5.62Q42.50-5.87 42.29-6Q42.08-6.13 41.75-6.13L41.75-6.13Q41.51-6.13 41.27-6.07Q41.03-6 40.87-5.84L40.87-5.84Q41.21-5.72 41.39-5.48Q41.58-5.23 41.58-4.92L41.58-4.92Q41.58-4.51 41.30-4.27Q41.02-4.03 40.63-4.03L40.63-4.03Q40.20-4.03 39.98-4.30Q39.76-4.57 39.76-4.96L39.76-4.96Q39.76-5.30 39.93-5.53Q40.10-5.76 40.42-5.96L40.42-5.96Q40.75-6.16 41.23-6.26Q41.70-6.37 42.25-6.37L42.25-6.37Q42.80-6.37 43.25-6.26Q43.69-6.14 43.99-5.84L43.99-5.84Q44.27-5.57 44.35-5.17Q44.44-4.76 44.44-4.15L44.44-4.15L44.44-0.89Q44.44-0.60 44.50-0.48Q44.56-0.36 44.70-0.36L44.70-0.36Q44.82-0.36 44.93-0.42Q45.04-0.48 45.13-0.56L45.13-0.56L45.25-0.36Q45-0.14 44.67-0.03Q44.34 0.08 43.93 0.08L43.93 0.08Q43.21 0.08 42.98-0.21Q42.74-0.50 42.73-0.89L42.73-0.89Q42.43-0.40 41.99-0.16Q41.56 0.08 40.97 0.08ZM41.89-0.68L41.89-0.68Q42.12-0.68 42.32-0.79Q42.52-0.90 42.71-1.18L42.71-1.18L42.71-3.64Q42.56-3.40 42.31-3.23Q42.05-3.07 41.78-2.89Q41.51-2.70 41.33-2.41Q41.15-2.12 41.15-1.64L41.15-1.64Q41.15-1.13 41.36-0.91Q41.58-0.68 41.89-0.68ZM50.06-6.37L50.06-6.37Q50.57-6.37 50.89-6.25Q51.20-6.12 51.38-5.90L51.38-5.90Q51.58-5.68 51.67-5.32Q51.76-4.96 51.76-4.34L51.76-4.34L51.76-1.12Q51.76-0.61 51.93-0.43Q52.10-0.25 52.52-0.25L52.52-0.25L52.52 0Q52.30-0.01 51.84-0.03Q51.38-0.05 50.94-0.05L50.94-0.05Q50.48-0.05 50.05-0.03Q49.61-0.01 49.38 0L49.38 0L49.38-0.25Q49.74-0.25 49.88-0.43Q50.03-0.61 50.03-1.12L50.03-1.12L50.03-4.85Q50.03-5.15 49.97-5.37Q49.91-5.59 49.75-5.72Q49.60-5.84 49.28-5.84L49.28-5.84Q48.78-5.84 48.44-5.45Q48.10-5.05 48.10-4.45L48.10-4.45L48.10-1.12Q48.10-0.61 48.25-0.43Q48.40-0.25 48.74-0.25L48.74-0.25L48.74 0Q48.53-0.01 48.11-0.03Q47.70-0.05 47.26-0.05L47.26-0.05Q46.80-0.05 46.32-0.03Q45.84-0.01 45.60 0L45.60 0L45.60-0.25Q46.02-0.25 46.19-0.43Q46.37-0.61 46.37-1.12L46.37-1.12L46.37-4.90Q46.37-5.44 46.21-5.69Q46.04-5.95 45.60-5.95L45.60-5.95L45.60-6.20Q45.98-6.17 46.34-6.17L46.34-6.17Q46.85-6.17 47.29-6.21Q47.72-6.25 48.10-6.34L48.10-6.34L48.10-5.26Q48.40-5.87 48.91-6.12Q49.43-6.37 50.06-6.37ZM56.06-6.37L56.06-6.37Q57.12-6.37 57.72-5.75Q58.32-5.12 58.32-3.71L58.32-3.71L54.37-3.71L54.35-3.94L56.81-3.94Q56.82-4.52 56.74-5.02Q56.65-5.52 56.47-5.82Q56.29-6.12 55.99-6.12L55.99-6.12Q55.57-6.12 55.28-5.59Q54.98-5.06 54.92-3.84L54.92-3.84L54.96-3.77Q54.95-3.62 54.94-3.47Q54.94-3.31 54.94-3.14L54.94-3.14Q54.94-2.32 55.17-1.80Q55.40-1.28 55.76-1.05Q56.12-0.82 56.50-0.82L56.50-0.82Q56.86-0.82 57.28-1.00Q57.71-1.18 58.08-1.78L58.08-1.78L58.30-1.70Q58.15-1.25 57.84-0.82Q57.53-0.38 57.05-0.11Q56.57 0.17 55.90 0.17L55.90 0.17Q55.08 0.17 54.46-0.18Q53.83-0.53 53.48-1.24Q53.12-1.94 53.12-3.04L53.12-3.04Q53.12-4.15 53.50-4.90Q53.88-5.64 54.55-6.01Q55.21-6.37 56.06-6.37Z" transform="translate(0.14400000000000002, 9.396)"/></g></g></g></g><defs v-gra="od"><linearGradient x1="0" y1="1" x2="0" y2="0" id="0f54095e-1a54-485d-8959-be373391d2ee"><stop offset="0%" stop-color="#00f2fe"/><stop offset="100%" stop-color="#4facfe"/></linearGradient><filter id="42443b3f1de60f6b6fd3b6a9844b4764" filterUnits="userSpaceOnUse"><feColorMatrix type="matrix" values="0 0 0 0 0.99609375  0 0 0 0 0.99609375  0 0 0 0 0.99609375  0 0 0 1 0"/></filter></defs></svg>